<?xml version="1.0" ?><!DOCTYPE svg  PUBLIC '-//W3C//DTD SVG 1.1//EN'  'http://www.w3.org/Graphics/SVG/1.1/DTD/svg11.dtd'><svg enable-background="new 0 0 128 128" id="Layer_1" version="1.1" viewBox="0 0 128 128" xml:space="preserve" xmlns="http://www.w3.org/2000/svg" xmlns:xlink="http://www.w3.org/1999/xlink"><circle cx="64" cy="64" fill="#4B5F83" id="circle" r="64"/><g id="icon"><path d="M95,96H33c-2.2,0-4-1.8-4-4V37c0-2.2,1.8-4,4-4h62c2.2,0,4,1.8,4,4v55C99,94.2,97.2,96,95,96z" fill="#FFFFFF" id="bg"/><g id="text"><rect fill="#E6E6E6" height="4" id="XMLID_2_" width="33" x="56" y="57"/><rect fill="#E6E6E6" height="4" id="XMLID_7_" width="33" x="56" y="65"/><rect fill="#E6E6E6" height="4" id="XMLID_8_" width="50" x="39" y="73"/><rect fill="#E6E6E6" height="4" id="XMLID_9_" width="50" x="39" y="81"/></g><rect fill="#22A7F0" height="12" id="img" width="12" x="39" y="57"/><path d="M95,33H33c-2.2,0-4,1.8-4,4v4.1V42v4h70v-4v-0.9V37C99,34.8,97.2,33,95,33z" fill="#E6E6E6" id="header"/><circle cx="36" cy="39.8" fill="#CF000F" id="red" r="2"/><circle cx="42" cy="39.8" fill="#E67E22" id="orange" r="2"/><circle cx="48" cy="39.8" fill="#26A65B" id="green" r="2"/></g></svg>